<svg width="41" height="40" viewBox="0 0 41 40" fill="none" xmlns="http://www.w3.org/2000/svg">
<path d="M19.0244 22.0213V37.4563H11.4382V22.0213H19.0244ZM9.86316 37.4563H0.649413V28.6888H9.86316V37.4563ZM9.86316 20.42C4.45566 20.42 0.360663 16.1675 0.360663 10.9175C0.360663 5.6675 4.45566 1.38875 9.86316 1.38875C15.1919 1.38875 19.2869 5.6675 19.2869 10.9175C19.2869 16.1675 15.2707 20.42 9.86316 20.42ZM40.0244 29.9488C39.8932 36.5113 35.5619 39.5825 30.8369 39.5825C26.1119 39.5825 21.6494 36.4325 21.6494 29.6338V23.5175L30.7844 28.4525V21.8375H40.0244V29.9488ZM30.8632 19.475C25.4557 19.475 21.3607 15.2225 21.3607 9.9725C21.3607 4.7225 25.4557 0.44375 30.8632 0.44375C36.1919 0.44375 40.2869 4.7225 40.2869 9.9725C40.2869 15.2225 36.2707 19.475 30.8632 19.475Z" fill="#EDC240"/>
</svg>
