<svg width="17" height="17" viewBox="0 0 17 17" fill="none" xmlns="http://www.w3.org/2000/svg">
<path d="M14.2766 13.1667L12.2099 11.1C12.9099 10.1933 13.3366 9.06667 13.3366 7.83333C13.3366 4.89333 10.9433 2.5 8.00326 2.5C5.06326 2.5 2.66992 4.89333 2.66992 7.83333C2.66992 10.7733 5.06326 13.1667 8.00326 13.1667C9.23659 13.1667 10.3633 12.7467 11.2699 12.04L13.3366 14.1067C13.4699 14.24 13.6366 14.3 13.8099 14.3C13.9833 14.3 14.1499 14.2333 14.2833 14.1067C14.5433 13.8467 14.5433 13.4267 14.2833 13.1667H14.2766ZM4.00326 7.83333C4.00326 5.62667 5.79659 3.83333 8.00326 3.83333C10.2099 3.83333 12.0033 5.62667 12.0033 7.83333C12.0033 10.04 10.2099 11.8333 8.00326 11.8333C5.79659 11.8333 4.00326 10.04 4.00326 7.83333Z" fill="#646B80"/>
</svg>
